<?xml version="1.0" encoding="UTF-8" standalone="no"?>
<svg
   xmlns:dc="http://purl.org/dc/elements/1.1/"
   xmlns:cc="http://creativecommons.org/ns#"
   xmlns:rdf="http://www.w3.org/1999/02/22-rdf-syntax-ns#"
   xmlns:svg="http://www.w3.org/2000/svg"
   xmlns="http://www.w3.org/2000/svg"
   width="32"
   height="32"
   viewBox="0 0 8.4666666 8.4666666"
   version="1.1"
   id="svg8"
   class="up_mainSeciton__newFoderBtn">
  <g
     id="layer1">
    <path
       transform="scale(0.26458333)"
       d="M 21.990234 0 C 16.476784 -4.8532864e-15 11.996094 4.488503 11.996094 10.001953 C 11.996094 12.237726 12.742449 14.296506 13.986328 15.962891 L 8.8457031 21.105469 L 8.4921875 20.751953 L 0.005859375 29.236328 L 2.8339844 32.064453 L 11.320312 23.580078 L 10.966797 23.226562 L 16.117188 18.074219 C 17.767858 19.278267 19.794152 19.998047 21.990234 19.998047 C 27.503684 19.998047 31.992188 15.515403 31.992188 10.001953 C 31.992188 4.4885027 27.503684 -2.2633936e-07 21.990234 0 z M 21.990234 1.5878906 C 26.646152 1.5878904 30.40625 5.3460348 30.40625 10.001953 C 30.40625 14.657871 26.646152 18.410156 21.990234 18.410156 C 17.334316 18.410156 13.582031 14.657871 13.582031 10.001953 C 13.582031 5.3460348 17.334316 1.5878906 21.990234 1.5878906 z "/>
  </g>
</svg>
